<svg viewBox="-454 -249 1181 754" width="1181" height="754" version="1.1" baseProfile="full" xmlns="http://www.w3.org/2000/svg" class="js-draw--autoresize"><style id="js-draw-style-sheet">path{stroke-linecap:round;stroke-linejoin:round;}text{white-space:pre;}</style><path d="M727,505l0-754l-1181,0l0,754l1181,0" fill="#ffffff" class="js-draw-image-background"></path><path d="M-181,-144q-6,3 -10,6q-19,14 -95,69q-17,12 35,82q36,48 122,56q55,5 128-47q24-17 21-32q-1-9 -31-47q-23-29 -48-37q-3-1 -35-1" fill="none" stroke="#803380" stroke-width="4"></path><path d="M256,-134q-18,11 -44,32q-39,32 -61,74q-1,38 5,71q7,37 83,101q35,30 88-6q21-15 70-73q4-5 -9-9q-110-33 -141-64" fill="none" stroke="#803380" stroke-width="4"></path><path d="M3,201q-12,2 -24,7q-79,33 -117,68q-4,4 -1,30q3,20 88,50q51,18 117-2q19-6 34-23q13-15 -15-20q-24-4 -49,8q-9,4 -10,2" fill="none" stroke="#803380" stroke-width="4"></path><path d="M-230,-247q-111,113 -161,182q-61,84 -52,151q9,37 19,66q1,3 1,40q0,7 33,71q21,41 55,49q0,0 0,1q0,1 -4,0" fill="none" stroke="#803380" stroke-width="4"></path><path d="M623,-216q61,105 75,134q21,43 23,100q4,105 -50,219q-20,44 -35,80q-11,25 -38,43q-44,35 -78,66q-18,16 -103,68q-15,9 -85,0q-62-1 -112,0q-85,2 -233-17q-38-5 -99-24q-51-8 -93-11q-32-2 -71-24q-9-5 -41-37q-12-12 -12-37q0-28 -1-31q-2-5 -6-5" fill="none" stroke="#803380" stroke-width="4"></path></svg>